<svg xmlns="http://www.w3.org/2000/svg" viewBox="0 0 375 375" width="375" height="375" preserveAspectRatio="xMidYMid slice" style="width: 100%; height: 100%; transform: translate3d(0px, 0px, 0px);"><defs><clipPath id="__lottie_element_2"><rect width="375" height="375" x="0" y="0"></rect></clipPath></defs><g clip-path="url(#__lottie_element_2)"><g style="display: block;" transform="matrix(0.9396926164627075,0.3420201539993286,-0.3420201539993286,0.9396926164627075,111.30962371826172,30.516525268554688)" opacity="1"><g opacity="1" transform="matrix(1,0,0,1,124.0999984741211,124.03500366210938)"><path fill="rgb(141,130,184)" fill-opacity="1" d=" M-7.064000129699707,123.78500366210938 C-7.086999893188477,123.78500366210938 -7.110000133514404,123.78299713134766 -7.132999897003174,123.78199768066406 C-11.911999702453613,123.51100158691406 -16.724000930786133,122.95899963378906 -21.434999465942383,122.13899993896484 C-22.07699966430664,122.0270004272461 -22.506999969482422,121.41600036621094 -22.395000457763672,120.77400207519531 C-22.283000946044922,120.13300323486328 -21.67300033569336,119.7040023803711 -21.0310001373291,119.81400299072266 C-16.40999984741211,120.61900329589844 -11.687999725341797,121.16100311279297 -6.999000072479248,121.42900085449219 C-6.348999977111816,121.46499633789062 -5.85099983215332,122.02300262451172 -5.888000011444092,122.6729965209961 C-5.923999786376953,123.3010025024414 -6.443999767303467,123.78500366210938 -7.064000129699707,123.78500366210938z M7.195000171661377,123.7750015258789 C6.574999809265137,123.7750015258789 6.054999828338623,123.28900146484375 6.019000053405762,122.66300201416016 C5.980999946594238,122.01300048828125 6.478000164031982,121.45600128173828 7.129000186920166,121.41899871826172 C11.821000099182129,121.14900207519531 16.54199981689453,120.5999984741211 21.158000946044922,119.78800201416016 C21.79599952697754,119.68199920654297 22.40999984741211,120.10600280761719 22.523000717163086,120.74700164794922 C22.635000228881836,121.38800048828125 22.207000732421875,122.0009994506836 21.565000534057617,122.11299896240234 C16.858999252319336,122.94000244140625 12.04800033569336,123.49600219726562 7.263999938964844,123.77200317382812 C7.241000175476074,123.77300262451172 7.2179999351501465,123.7750015258789 7.195000171661377,123.7750015258789z M-35.11399841308594,118.88500213623047 C-35.22600173950195,118.88500213623047 -35.3390007019043,118.86799621582031 -35.45199966430664,118.83499908447266 C-40.04100036621094,117.46700286865234 -44.59700012207031,115.81300354003906 -48.99300003051758,113.91600036621094 C-49.590999603271484,113.65699768066406 -49.867000579833984,112.96499633789062 -49.60900115966797,112.36499786376953 C-49.35200119018555,111.76799774169922 -48.65800094604492,111.49299621582031 -48.058998107910156,111.7509994506836 C-43.74700164794922,113.61000061035156 -39.27899932861328,115.23400115966797 -34.77799987792969,116.57599639892578 C-34.15399932861328,116.76100158691406 -33.79800033569336,117.41999816894531 -33.98400115966797,118.04399871826172 C-34.137001037597656,118.55500030517578 -34.60599899291992,118.88500213623047 -35.11399841308594,118.88500213623047z M35.23899841308594,118.84700012207031 C34.73099899291992,118.84700012207031 34.262001037597656,118.51799774169922 34.10900115966797,118.00599670410156 C33.92300033569336,117.38200378417969 34.277000427246094,116.7249984741211 34.900001525878906,116.53800201416016 C39.39400100708008,115.19200134277344 43.858001708984375,113.56600189208984 48.17300033569336,111.70099639892578 C48.77000045776367,111.44200134277344 49.46500015258789,111.71900177001953 49.72200012207031,112.31700134277344 C49.97999954223633,112.91400146484375 49.70500183105469,113.61000061035156 49.106998443603516,113.86699676513672 C44.71099853515625,115.76899719238281 40.15700149536133,117.427001953125 35.577999114990234,118.7979965209961 C35.46500015258789,118.83100128173828 35.349998474121094,118.84700012207031 35.23899841308594,118.84700012207031z M-61.2760009765625,107.60800170898438 C-61.47600173950195,107.60800170898438 -61.67900085449219,107.55699920654297 -61.8650016784668,107.4489974975586 C-66.00599670410156,105.05699920654297 -70.05500030517578,102.39399719238281 -73.89700317382812,99.53299713134766 C-74.41899871826172,99.1449966430664 -74.5270004272461,98.40499877929688 -74.13899993896484,97.88300323486328 C-73.75,97.36299896240234 -73.01100158691406,97.25399780273438 -72.48799896240234,97.64299774169922 C-68.71900177001953,100.4489974975586 -64.74700164794922,103.05999755859375 -60.685001373291016,105.40699768066406 C-60.12099838256836,105.73300170898438 -59.928001403808594,106.4530029296875 -60.25400161743164,107.01799774169922 C-60.472999572753906,107.39700317382812 -60.86899948120117,107.60800170898438 -61.2760009765625,107.60800170898438z M61.374000549316406,107.552001953125 C60.96500015258789,107.552001953125 60.57099914550781,107.34200286865234 60.35200119018555,106.96399688720703 C60.025001525878906,106.4010009765625 60.21799850463867,105.68000030517578 60.78200149536133,105.35399627685547 C64.83999633789062,103.00499725341797 68.80500030517578,100.38899993896484 72.57099914550781,97.58000183105469 C73.09400177001953,97.19200134277344 73.83100128173828,97.2979965209961 74.22100067138672,97.81999969482422 C74.61100006103516,98.34200286865234 74.50399780273438,99.08100128173828 73.98100280761719,99.47100067138672 C70.14299774169922,102.33300018310547 66.0989990234375,104.9990005493164 61.9630012512207,107.39399719238281 C61.7760009765625,107.50199890136719 61.57400131225586,107.552001953125 61.374000549316406,107.552001953125z M-84.12000274658203,90.5999984741211 C-84.41100311279297,90.5999984741211 -84.7020034790039,90.49299621582031 -84.93000030517578,90.2770004272461 C-88.41200256347656,86.99600219726562 -91.73999786376953,83.4749984741211 -94.81900024414062,79.81300354003906 C-95.23799896240234,79.31400299072266 -95.17500305175781,78.57099914550781 -94.6760025024414,78.1520004272461 C-94.1760025024414,77.73500061035156 -93.43299865722656,77.7969970703125 -93.01499938964844,78.29499816894531 C-89.99299621582031,81.88700103759766 -86.72799682617188,85.34100341796875 -83.31199645996094,88.56199645996094 C-82.83799743652344,89.00900268554688 -82.81600189208984,89.75499725341797 -83.26300048828125,90.22899627685547 C-83.49500274658203,90.4749984741211 -83.80699920654297,90.5999984741211 -84.12000274658203,90.5999984741211z M84.19400024414062,90.52799987792969 C83.88099670410156,90.52799987792969 83.56800079345703,90.40499877929688 83.33599853515625,90.16000366210938 C82.88899993896484,89.68699645996094 82.91100311279297,88.94100189208984 83.38400268554688,88.49199676513672 C86.79900360107422,85.26899719238281 90.06199645996094,81.81099700927734 93.0790023803711,78.21800231933594 C93.49600219726562,77.72100067138672 94.24099731445312,77.65499877929688 94.74099731445312,78.0739974975586 C95.23999786376953,78.49400329589844 95.30400085449219,79.23500061035156 94.88400268554688,79.73500061035156 C91.80899810791016,83.39800262451172 88.48400115966797,86.9209976196289 85.00399780273438,90.20800018310547 C84.7750015258789,90.4229965209961 84.48400115966797,90.52799987792969 84.19400024414062,90.52799987792969z M-102.447998046875,68.80899810791016 C-102.83000183105469,68.80899810791016 -103.20600128173828,68.62200164794922 -103.43299865722656,68.27799987792969 C-106.06900024414062,64.28600311279297 -108.49800109863281,60.09700012207031 -110.6520004272461,55.82500076293945 C-110.94499969482422,55.24399948120117 -110.71099853515625,54.5359992980957 -110.12999725341797,54.242000579833984 C-109.5510025024414,53.94900131225586 -108.83999633789062,54.18299865722656 -108.5459976196289,54.763999938964844 C-106.43299865722656,58.95199966430664 -104.0510025024414,63.06399917602539 -101.46499633789062,66.9800033569336 C-101.10600280761719,67.52400207519531 -101.25599670410156,68.25399780273438 -101.79900360107422,68.61299896240234 C-101.9990005493164,68.74500274658203 -102.2249984741211,68.80899810791016 -102.447998046875,68.80899810791016z M102.50599670410156,68.72000122070312 C102.28500366210938,68.72000122070312 102.05899810791016,68.65599822998047 101.86000061035156,68.5250015258789 C101.31500244140625,68.16699981689453 101.16600036621094,67.43699645996094 101.52300262451172,66.89299774169922 C104.11100006103516,62.96500015258789 106.49099731445312,58.849998474121094 108.59700012207031,54.6609992980957 C108.88999938964844,54.07899856567383 109.60099792480469,53.84600067138672 110.18099975585938,54.138999938964844 C110.76200103759766,54.43199920654297 110.99800109863281,55.13999938964844 110.70500183105469,55.72100067138672 C108.55699920654297,59.9900016784668 106.13099670410156,64.18599700927734 103.49299621582031,68.18900299072266 C103.26599884033203,68.53299713134766 102.88999938964844,68.72000122070312 102.50599670410156,68.72000122070312z M-115.26499938964844,43.38600158691406 C-115.74600219726562,43.38600158691406 -116.197998046875,43.0890007019043 -116.37300109863281,42.61000061035156 C-118.01300048828125,38.117000579833984 -119.40599822998047,33.47700119018555 -120.51100158691406,28.816999435424805 C-120.66100311279297,28.18400001525879 -120.26899719238281,27.54800033569336 -119.63600158691406,27.398000717163086 C-119.00399780273438,27.25 -118.36699676513672,27.638999938964844 -118.21600341796875,28.273000717163086 C-117.13200378417969,32.84299850463867 -115.76599884033203,37.39500045776367 -114.15699768066406,41.801998138427734 C-113.93399810791016,42.41299819946289 -114.2490005493164,43.090999603271484 -114.86100006103516,43.31399917602539 C-114.99400329589844,43.36199951171875 -115.13099670410156,43.38600158691406 -115.26499938964844,43.38600158691406z M115.30699920654297,43.27199935913086 C115.17400360107422,43.27199935913086 115.03700256347656,43.24800109863281 114.90499877929688,43.20000076293945 C114.29199981689453,42.97800064086914 113.97599792480469,42.30099868774414 114.19999694824219,41.68899917602539 C115.80599975585938,37.27199935913086 117.16899871826172,32.715999603271484 118.24500274658203,28.14900016784668 C118.39600372314453,27.513999938964844 119.02899932861328,27.1200008392334 119.66400146484375,27.27199935913086 C120.2979965209961,27.42099952697754 120.69100189208984,28.055999755859375 120.54199981689453,28.690000534057617 C119.44200134277344,33.34700012207031 118.05400085449219,37.99100112915039 116.41600036621094,42.49399948120117 C116.24199676513672,42.9739990234375 115.78900146484375,43.27199935913086 115.30699920654297,43.27199935913086z M-121.83999633789062,15.680000305175781 C-122.43000030517578,15.680000305175781 -122.94000244140625,15.237000465393066 -123.00900268554688,14.63700008392334 C-123.56199645996094,9.899999618530273 -123.84500122070312,5.064000129699707 -123.8499984741211,0.26600000262260437 C-123.8499984741211,-0.38600000739097595 -123.322998046875,-0.9139999747276306 -122.6719970703125,-0.9150000214576721 C-122.6719970703125,-0.9150000214576721 -122.6709976196289,-0.9150000214576721 -122.6709976196289,-0.9150000214576721 C-122.0199966430664,-0.9150000214576721 -121.49199676513672,-0.3869999945163727 -121.49199676513672,0.2639999985694885 C-121.48600006103516,4.9730000495910645 -121.20899963378906,9.715999603271484 -120.66699981689453,14.36400032043457 C-120.59200286865234,15.01099967956543 -121.05500030517578,15.597000122070312 -121.7020034790039,15.67300033569336 C-121.74800109863281,15.678000450134277 -121.79399871826172,15.680000305175781 -121.83999633789062,15.680000305175781z M121.85399627685547,15.550999641418457 C121.80899810791016,15.550999641418457 121.76300048828125,15.550000190734863 121.71700286865234,15.543999671936035 C121.07099914550781,15.470000267028809 120.60700225830078,14.883000373840332 120.68199920654297,14.236000061035156 C121.21800231933594,9.59000015258789 121.49199676513672,4.84499979019165 121.49199676513672,0.13500000536441803 C121.49199676513672,0.13500000536441803 121.49199676513672,-0.12600000202655792 121.49199676513672,-0.12600000202655792 C121.49199676513672,-0.7760000228881836 122.01899719238281,-1.3049999475479126 122.6709976196289,-1.3049999475479126 C123.3219985961914,-1.3049999475479126 123.8499984741211,-0.7760000228881836 123.8499984741211,-0.12600000202655792 C123.8499984741211,-0.12600000202655792 123.8499984741211,0.13500000536441803 123.8499984741211,0.13500000536441803 C123.8499984741211,4.934999942779541 123.5719985961914,9.770999908447266 123.02400207519531,14.506999969482422 C122.95500183105469,15.109000205993652 122.44499969482422,15.550999641418457 121.85399627685547,15.550999641418457z M-121.86699676513672,-12.793999671936035 C-121.91100311279297,-12.793999671936035 -121.95700073242188,-12.795999526977539 -122.00199890136719,-12.800999641418457 C-122.64900207519531,-12.875 -123.11399841308594,-13.460000038146973 -123.04000091552734,-14.107000350952148 C-122.49400329589844,-18.867000579833984 -121.66400146484375,-23.638999938964844 -120.5719985961914,-28.29199981689453 C-120.4219970703125,-28.926000595092773 -119.78700256347656,-29.320999145507812 -119.15399932861328,-29.17099952697754 C-118.5199966430664,-29.02199935913086 -118.12699890136719,-28.38800048828125 -118.2750015258789,-27.753000259399414 C-119.3479995727539,-23.18899917602539 -120.16200256347656,-18.506999969482422 -120.69599914550781,-13.83899974822998 C-120.76499938964844,-13.237000465393066 -121.2760009765625,-12.793999671936035 -121.86699676513672,-12.793999671936035z M121.8219985961914,-13.182000160217285 C121.23200225830078,-13.182000160217285 120.72200012207031,-13.623000144958496 120.6520004272461,-14.222999572753906 C120.10099792480469,-18.893999099731445 119.27200317382812,-23.57200050354004 118.18599700927734,-28.128000259399414 C118.03600311279297,-28.76300048828125 118.4260025024414,-29.39900016784668 119.05999755859375,-29.549999237060547 C119.68399810791016,-29.69700050354004 120.33000183105469,-29.308000564575195 120.4800033569336,-28.676000595092773 C121.58699798583984,-24.0310001373291 122.43299865722656,-19.261999130249023 122.99400329589844,-14.49899959564209 C123.06999969482422,-13.85200023651123 122.60700225830078,-13.265000343322754 121.96199798583984,-13.189000129699707 C121.91400146484375,-13.182999610900879 121.86799621582031,-13.182000160217285 121.8219985961914,-13.182000160217285z M-115.35099792480469,-40.52000045776367 C-115.48500061035156,-40.52000045776367 -115.62100219726562,-40.542999267578125 -115.75299835205078,-40.59199905395508 C-116.36599731445312,-40.8129997253418 -116.68199920654297,-41.4900016784668 -116.45999908447266,-42.10200119018555 C-114.8280029296875,-46.5989990234375 -112.91200256347656,-51.05099868774414 -110.76300048828125,-55.33399963378906 C-110.47100067138672,-55.915000915527344 -109.76399993896484,-56.150001525878906 -109.18000030517578,-55.85900115966797 C-108.5979995727539,-55.56700134277344 -108.36299896240234,-54.858001708984375 -108.65499877929688,-54.277000427246094 C-110.76300048828125,-50.07500076293945 -112.64299774169922,-45.70800018310547 -114.24299621582031,-41.29800033569336 C-114.41699981689453,-40.81800079345703 -114.86900329589844,-40.52000045776367 -115.35099792480469,-40.52000045776367z M115.22200012207031,-40.87799835205078 C114.74199676513672,-40.87799835205078 114.29100036621094,-41.17599868774414 114.11599731445312,-41.65299987792969 C112.4990005493164,-46.06399917602539 110.60600280761719,-50.42399978637695 108.48799896240234,-54.61000061035156 C108.19400024414062,-55.191001892089844 108.427001953125,-55.900001525878906 109.00800323486328,-56.19499969482422 C109.58999633789062,-56.48899841308594 110.2979965209961,-56.25600051879883 110.59300231933594,-55.67399978637695 C112.75199890136719,-51.40700149536133 114.68099975585938,-46.96099853515625 116.3290023803711,-42.4640007019043 C116.5530014038086,-41.85300064086914 116.23899841308594,-41.17499923706055 115.62799835205078,-40.95100021362305 C115.49400329589844,-40.902000427246094 115.35700225830078,-40.87799835205078 115.22200012207031,-40.87799835205078z M-102.58100128173828,-65.98200225830078 C-102.8030014038086,-65.98200225830078 -103.02799987792969,-66.04399871826172 -103.22699737548828,-66.1760025024414 C-103.77100372314453,-66.53399658203125 -103.9229965209961,-67.26499938964844 -103.56500244140625,-67.80899810791016 C-100.93599700927734,-71.80699920654297 -98.04499816894531,-75.69599914550781 -94.97000122070312,-79.36499786376953 C-94.5530014038086,-79.86399841308594 -93.80699920654297,-79.93000030517578 -93.30899810791016,-79.51100158691406 C-92.80999755859375,-79.09300231933594 -92.74400329589844,-78.3479995727539 -93.16200256347656,-77.8479995727539 C-96.17900085449219,-74.2490005493164 -99.01499938964844,-70.43699645996094 -101.59500122070312,-66.51399993896484 C-101.82099914550781,-66.16999816894531 -102.1969985961914,-65.98200225830078 -102.58100128173828,-65.98200225830078z M102.37999725341797,-66.28800201416016 C101.99700164794922,-66.28800201416016 101.62200164794922,-66.4739990234375 101.39399719238281,-66.81700134277344 C98.80699920654297,-70.72699737548828 95.96099853515625,-74.53099822998047 92.93099975585938,-78.1240005493164 C92.51200103759766,-78.62200164794922 92.57599639892578,-79.36699676513672 93.0739974975586,-79.78700256347656 C93.5719985961914,-80.20700073242188 94.31500244140625,-80.14199829101562 94.73500061035156,-79.6449966430664 C97.82099914550781,-75.98300170898438 100.7239990234375,-72.10399627685547 103.36100006103516,-68.11900329589844 C103.72000122070312,-67.57599639892578 103.5719985961914,-66.84500122070312 103.02899932861328,-66.48500061035156 C102.8280029296875,-66.35299682617188 102.60199737548828,-66.28800201416016 102.37999725341797,-66.28800201416016z M-84.28800201416016,-87.81300354003906 C-84.60099792480469,-87.81300354003906 -84.91300201416016,-87.93599700927734 -85.1449966430664,-88.18199920654297 C-85.59300231933594,-88.65499877929688 -85.5719985961914,-89.4000015258789 -85.0979995727539,-89.8479995727539 C-81.62200164794922,-93.13700103759766 -77.91699981689453,-96.25599670410156 -74.08499908447266,-99.12000274658203 C-73.56300354003906,-99.51100158691406 -72.82499694824219,-99.40299987792969 -72.43499755859375,-98.88200378417969 C-72.04499816894531,-98.36100006103516 -72.1520004272461,-97.62200164794922 -72.67400360107422,-97.23200225830078 C-76.43199920654297,-94.4219970703125 -80.06700134277344,-91.36199951171875 -83.47799682617188,-88.13500213623047 C-83.70500183105469,-87.91999816894531 -83.99700164794922,-87.81300354003906 -84.28800201416016,-87.81300354003906z M84.0260009765625,-88.05899810791016 C83.73500061035156,-88.05899810791016 83.44499969482422,-88.16600036621094 83.21700286865234,-88.37999725341797 C79.79499816894531,-91.5989990234375 76.1500015258789,-94.6510009765625 72.38400268554688,-97.4489974975586 C71.86199951171875,-97.83699798583984 71.75399780273438,-98.57599639892578 72.14099884033203,-99.0979995727539 C72.53099822998047,-99.62000274658203 73.26799774169922,-99.7300033569336 73.79199981689453,-99.34200286865234 C77.62999725341797,-96.48999786376953 81.34400177001953,-93.37899780273438 84.83399963378906,-90.0979995727539 C85.30799865722656,-89.6510009765625 85.33100128173828,-88.90599822998047 84.88400268554688,-88.43199920654297 C84.6520004272461,-88.18499755859375 84.33899688720703,-88.05899810791016 84.0260009765625,-88.05899810791016z M-61.483001708984375,-104.85900115966797 C-61.88999938964844,-104.85900115966797 -62.28499984741211,-105.06900024414062 -62.50400161743164,-105.4469985961914 C-62.83100128173828,-106.01000213623047 -62.638999938964844,-106.73200225830078 -62.07600021362305,-107.05799865722656 C-57.933998107910156,-109.46199798583984 -53.61199951171875,-111.6449966430664 -49.229000091552734,-113.54499816894531 C-48.630001068115234,-113.8030014038086 -47.93600082397461,-113.52899932861328 -47.678001403808594,-112.93099975585938 C-47.417999267578125,-112.33300018310547 -47.69300079345703,-111.63999938964844 -48.290000915527344,-111.38099670410156 C-52.5890007019043,-109.51699829101562 -56.82899856567383,-107.3759994506836 -60.891998291015625,-105.01899719238281 C-61.077999114990234,-104.91100311279297 -61.28200149536133,-104.85900115966797 -61.483001708984375,-104.85900115966797z M61.1619987487793,-105.04499816894531 C60.9630012512207,-105.04499816894531 60.75899887084961,-105.09500122070312 60.57400131225586,-105.2020034790039 C56.50400161743164,-107.5469970703125 52.25400161743164,-109.677001953125 47.94200134277344,-111.53199768066406 C47.34199905395508,-111.78800201416016 47.066001892089844,-112.48100280761719 47.323001861572266,-113.08000183105469 C47.582000732421875,-113.6780014038086 48.27899932861328,-113.95500183105469 48.87200164794922,-113.6969985961914 C53.26900100708008,-111.80699920654297 57.60200119018555,-109.63600158691406 61.75199890136719,-107.24500274658203 C62.314998626708984,-106.91999816894531 62.5099983215332,-106.19999694824219 62.183998107910156,-105.63500213623047 C61.965999603271484,-105.25700378417969 61.569000244140625,-105.04499816894531 61.1619987487793,-105.04499816894531z M-35.3650016784668,-116.18000030517578 C-35.87200164794922,-116.18000030517578 -36.340999603271484,-116.51000213623047 -36.49399948120117,-117.0199966430664 C-36.680999755859375,-117.64399719238281 -36.327999114990234,-118.3030014038086 -35.70399856567383,-118.48999786376953 C-31.125999450683594,-119.86699676513672 -26.41200065612793,-120.98699951171875 -21.69499969482422,-121.82099914550781 C-21.054000854492188,-121.93099975585938 -20.441999435424805,-121.50599670410156 -20.327999114990234,-120.86499786376953 C-20.21500015258789,-120.2239990234375 -20.64299964904785,-119.61199951171875 -21.28499984741211,-119.49800109863281 C-25.910999298095703,-118.68099975585938 -30.53499984741211,-117.58000183105469 -35.025001525878906,-116.23100280761719 C-35.13800048828125,-116.1969985961914 -35.25299835205078,-116.18000030517578 -35.3650016784668,-116.18000030517578z M34.9900016784668,-116.29199981689453 C34.880001068115234,-116.29199981689453 34.766998291015625,-116.30799865722656 34.65399932861328,-116.34200286865234 C30.15999984741211,-117.6780014038086 25.533000946044922,-118.76200103759766 20.902999877929688,-119.56400299072266 C20.26099967956543,-119.67500305175781 19.83099937438965,-120.28600311279297 19.94300079345703,-120.9280014038086 C20.05299949645996,-121.56900024414062 20.666000366210938,-121.99800109863281 21.305999755859375,-121.88899993896484 C26.027000427246094,-121.07099914550781 30.743000030517578,-119.96399688720703 35.32699966430664,-118.60199737548828 C35.95100021362305,-118.41699981689453 36.305999755859375,-117.76100158691406 36.12099838256836,-117.13700103759766 C35.96699905395508,-116.6240005493164 35.5,-116.29199981689453 34.9900016784668,-116.29199981689453z M-7.327000141143799,-121.14099884033203 C-7.947000026702881,-121.14099884033203 -8.465999603271484,-121.6240005493164 -8.503000259399414,-122.2509994506836 C-8.541000366210938,-122.9010009765625 -8.045999526977539,-123.45800018310547 -7.394999980926514,-123.49600219726562 C-2.632999897003174,-123.7770004272461 2.2269999980926514,-123.78399658203125 7.002999782562256,-123.51899719238281 C7.6539998054504395,-123.48300170898438 8.151000022888184,-122.9280014038086 8.11400032043457,-122.2770004272461 C8.079000473022461,-121.62699890136719 7.534999847412109,-121.13899993896484 6.872000217437744,-121.16500091552734 C2.184000015258789,-121.427001953125 -2.5840001106262207,-121.41699981689453 -7.256999969482422,-121.14199829101562 C-7.281000137329102,-121.13999938964844 -7.303999900817871,-121.14099884033203 -7.327000141143799,-121.14099884033203z"></path></g></g></g></svg>