<svg xmlns="http://www.w3.org/2000/svg" viewBox="0 0 375 375" width="375" height="375" preserveAspectRatio="xMidYMid slice" style="width: 100%; height: 100%; transform: translate3d(0px, 0px, 0px);"><defs><clipPath id="__lottie_element_2"><rect width="375" height="375" x="0" y="0"></rect></clipPath></defs><g clip-path="url(#__lottie_element_2)"><g style="display: block;" transform="matrix(0.9999996423721313,0,0,0.9999996423721313,89.50003814697266,96.50003051757812)" opacity="1"><g opacity="1" transform="matrix(1,0,0,1,94.75599670410156,94.75599670410156)"><path fill="rgb(68,107,215)" fill-opacity="1" d=" M94.50599670410156,0 C94.50599670410156,52.194000244140625 52.194000244140625,94.50599670410156 0,94.50599670410156 C-52.194000244140625,94.50599670410156 -94.50599670410156,52.194000244140625 -94.50599670410156,0 C-94.50599670410156,-52.194000244140625 -52.194000244140625,-94.50599670410156 0,-94.50599670410156 C52.194000244140625,-94.50599670410156 94.50599670410156,-52.194000244140625 94.50599670410156,0z"></path></g><g opacity="1" transform="matrix(1,0,0,1,83.8010025024414,186.16900634765625)"><path fill="rgb(16,179,135)" fill-opacity="1" d=" M0.4000000059604645,-0.010999999940395355 C0.13500000536441803,0.009999999776482582 -0.12999999523162842,-0.004000000189989805 -0.39500001072883606,-0.0020000000949949026 C-0.3970000147819519,-0.0020000000949949026 -0.39800000190734863,-0.0010000000474974513 -0.4000000059604645,-0.0010000000474974513 C-0.4000000059604645,-0.0010000000474974513 0.4000000059604645,-0.010999999940395355 0.4000000059604645,-0.010999999940395355z"></path></g><g opacity="1" transform="matrix(1,0,0,1,56.361000061035156,100.1050033569336)"><path fill="rgb(16,179,135)" fill-opacity="1" d=" M51.14699935913086,19.781999588012695 C50.426998138427734,19.41900062561035 49.55099868774414,19.41200065612793 48.87799835205078,18.968000411987305 C47.676998138427734,18.173999786376953 47.63800048828125,16.393999099731445 46.70100021362305,15.300999641418457 C44.9370002746582,13.243000030517578 41.4900016784668,14.541999816894531 39.17599868774414,14.11299991607666 C36.375999450683594,13.593999862670898 33.766998291015625,11.802000045776367 32.1150016784668,9.515000343322754 C31.3799991607666,8.498000144958496 30.79199981689453,7.343999862670898 29.82699966430664,6.540999889373779 C27.68199920654297,4.75600004196167 24.288999557495117,5.177999973297119 22.165000915527344,3.368000030517578 C20.732999801635742,2.1489999294281006 20.017000198364258,0.023000000044703484 18.23200035095215,-0.5680000185966492 C16.406999588012695,-1.1720000505447388 14.260000228881836,0.1599999964237213 12.553000450134277,-0.722000002861023 C11.47599983215332,-1.2790000438690186 10.982000350952148,-2.5199999809265137 10.211000442504883,-3.4539999961853027 C8.781999588012695,-5.189000129699707 6.175000190734863,-5.828999996185303 4.105000019073486,-4.955999851226807 C0.6039999723434448,-3.4790000915527344 -1.2430000305175781,1.6339999437332153 -5.0279998779296875,1.2970000505447388 C-7.3480000495910645,1.090999960899353 -8.934000015258789,-1.3309999704360962 -9.125,-3.6530001163482666 C-9.225000381469727,-4.8470001220703125 -9.055000305175781,-6.060999870300293 -9.262999534606934,-7.239999771118164 C-9.470999717712402,-8.420999526977539 -10.197999954223633,-9.635000228881836 -11.366999626159668,-9.89799976348877 C-11.835000038146973,-10.003000259399414 -12.364999771118164,-9.958000183105469 -12.746999740600586,-10.248000144958496 C-14.307000160217285,-11.435999870300293 -10.347000122070312,-13.951000213623047 -11.64900016784668,-15.418000221252441 C-11.887999534606934,-15.687000274658203 -12.255000114440918,-15.805999755859375 -12.612000465393066,-15.859000205993652 C-16.166000366210938,-16.378000259399414 -19.23200035095215,-11.53499984741211 -22.58799934387207,-12.812000274658203 C-24.06800079345703,-13.375 -24.905000686645508,-15.04800033569336 -24.902999877929688,-16.631999969482422 C-24.900999069213867,-18.215999603271484 -24.216999053955078,-19.718000411987305 -23.41900062561035,-21.086999893188477 C-21.959999084472656,-23.589000701904297 -19.95800018310547,-25.92300033569336 -17.264999389648438,-26.988000869750977 C-14.571999549865723,-28.05299949645996 -11.104999542236328,-27.517000198364258 -9.401000022888184,-25.176000595092773 C-8.633999824523926,-24.12299919128418 -8.270999908447266,-22.809999465942383 -7.452000141143799,-21.797000885009766 C-6.632999897003174,-20.784000396728516 -5.008999824523926,-20.180999755859375 -4.046999931335449,-21.059999465942383 C-3.1730000972747803,-21.858999252319336 -3.4179999828338623,-23.253000259399414 -3.4730000495910645,-24.43600082397461 C-3.7009999752044678,-29.382999420166016 0.5849999785423279,-33.334999084472656 4.889999866485596,-35.78099822998047 C9.194999694824219,-38.22800064086914 14.112000465393066,-40.143001556396484 16.952999114990234,-44.198001861572266 C18.618999481201172,-46.57699966430664 19.503000259399414,-49.6150016784668 21.85300064086914,-51.321998596191406 C25.086000442504883,-53.67100143432617 29.551000595092773,-52.513999938964844 33.53799819946289,-52.80099868774414 C34.2760009765625,-52.854000091552734 35.04999923706055,-52.97700119018555 35.625999450683594,-53.44200134277344 C36.775001525878906,-54.36899948120117 36.61899948120117,-56.17399978637695 36.084999084472656,-57.55099868774414 C35.35200119018555,-59.44599914550781 34.04899978637695,-61.18299865722656 32.23400115966797,-62.09400177001953 C30.41900062561035,-63.00600051879883 28.06399917602539,-62.952999114990234 26.486000061035156,-61.67499923706055 C24.98200035095215,-60.457000732421875 23.93600082397461,-58.152000427246094 22.007999420166016,-58.316001892089844 C20.267000198364258,-58.465999603271484 19.06999969482422,-60.72800064086914 17.347999572753906,-60.42599868774414 C16.156999588012695,-60.21799850463867 15.567999839782715,-58.91400146484375 14.960000038146973,-57.869998931884766 C14.196999549865723,-56.56100082397461 13.012999534606934,-55.38100051879883 11.519000053405762,-55.13399887084961 C10.02400016784668,-54.887001037597656 8.291999816894531,-55.92100143432617 8.218000411987305,-57.43299865722656 C8.17300033569336,-58.35900115966797 8.713000297546387,-59.305999755859375 8.397000312805176,-60.17599868774414 C7.671999931335449,-62.172000885009766 4.28000020980835,-60.744998931884766 2.6670000553131104,-62.125 C1.0839999914169312,-63.47800064086914 2.4779999256134033,-66.02799987792969 3.943000078201294,-67.50599670410156 C5.644000053405762,-69.22000122070312 7.572999954223633,-70.93599700927734 9.958999633789062,-71.30899810791016 C13.626999855041504,-71.88300323486328 17.400999069213867,-69.12200164794922 20.917999267578125,-70.31400299072266 C23.986000061035156,-71.35299682617188 25.6299991607666,-75.06099700927734 28.770000457763672,-75.86100006103516 C32.14099884033203,-76.72100067138672 35.19900131225586,-73.88099670410156 37.69900131225586,-71.46199798583984 C38.38199996948242,-70.8010025024414 39.18899917602539,-70.11199951171875 40.13800048828125,-70.1510009765625 C41.685001373291016,-70.21499633789062 42.43600082397461,-72.06300354003906 42.652000427246094,-73.59600067138672 C42.8489990234375,-74.98799896240234 42.70600128173828,-76.76000213623047 41.40700149536133,-77.29399871826172 C40.801998138427734,-77.54299926757812 40.11600112915039,-77.42900085449219 39.465999603271484,-77.4990005493164 C37.2760009765625,-77.73600006103516 35.90700149536133,-79.90899658203125 34.112998962402344,-81.18599700927734 C30.52199935913086,-83.74299621582031 25.38599967956543,-82.45899963378906 21.792999267578125,-79.90399932861328 C20.83099937438965,-79.22000122070312 19.895999908447266,-78.44000244140625 18.76300048828125,-78.10800170898438 C17.631000518798828,-77.7760009765625 16.211999893188477,-78.04199981689453 15.625,-79.06600189208984 C15.062000274658203,-80.04900360107422 15.395999908447266,-81.44300079345703 14.614999771118164,-82.26399993896484 C13.682999610900879,-83.24400329589844 11.942000389099121,-82.54499816894531 11.180999755859375,-81.4260025024414 C10.420999526977539,-80.30699920654297 10.1850004196167,-78.8949966430664 9.420000076293945,-77.77899932861328 C8.654999732971191,-76.66300201416016 6.906000137329102,-75.97699737548828 5.984000205993652,-76.96800231933594 C4.968999862670898,-78.06099700927734 5.98799991607666,-79.7979965209961 7.034999847412109,-80.86100006103516 C8.081999778747559,-81.92400360107422 9.260000228881836,-83.47200012207031 8.458999633789062,-84.73100280761719 C4.28000020980835,-86.0770034790039 0.1469999998807907,-80.52300262451172 -4.019999980926514,-81.90799713134766 C-5.355000019073486,-82.35299682617188 -6.664999961853027,-83.4990005493164 -7.980999946594238,-83 C-9.29800033569336,-82.5009994506836 -9.493000030517578,-80.53600311279297 -8.628999710083008,-79.42400360107422 C-7.764999866485596,-78.31099700927734 -6.2769999504089355,-77.9020004272461 -4.876999855041504,-77.74500274658203 C-4.2789998054504395,-77.6780014038086 -3.634000062942505,-77.62799835205078 -3.1740000247955322,-77.23899841308594 C-2.4570000171661377,-76.63500213623047 -2.553999900817871,-75.41799926757812 -3.1760001182556152,-74.71700286865234 C-3.7990000247955322,-74.01499938964844 -4.775000095367432,-73.73999786376953 -5.709000110626221,-73.66000366210938 C-11.29800033569336,-73.1760025024414 -15.977999687194824,-78.2699966430664 -21.569000244140625,-78.71700286865234 C-27.29400062561035,-79.17400360107422 -32.16299819946289,-74.73400115966797 -35.81399917602539,-70.3010025024414 C-43.250999450683594,-61.27000045776367 -48.94900131225586,-52.316001892089844 -52.678001403808594,-41.22600173950195 C-52.678001403808594,-41.22600173950195 -52.7869987487793,-41.23500061035156 -52.7869987487793,-41.23500061035156 C-53.00400161743164,-37.15399932861328 -51.14899826049805,-33.01599884033203 -47.95800018310547,-30.46299934387207 C-45.78200149536133,-28.72100067138672 -43.099998474121094,-27.725000381469727 -40.84199905395508,-26.090999603271484 C-38.58399963378906,-24.457000732421875 -36.683998107910156,-21.7810001373291 -37.250999450683594,-19.05299949645996 C-37.529998779296875,-17.714000701904297 -38.380001068115234,-16.489999771118164 -38.35300064086914,-15.123000144958496 C-38.319000244140625,-13.440999984741211 -36.926998138427734,-12.048999786376953 -35.375,-11.39900016784668 C-33.82400131225586,-10.74899959564209 -32.10599899291992,-10.661999702453613 -30.444000244140625,-10.409000396728516 C-27.850000381469727,-10.015000343322754 -25.339000701904297,-9.20300006866455 -22.843000411987305,-8.395999908447266 C-22.843000411987305,-8.395999908447266 -20.27400016784668,-7.564000129699707 -20.27400016784668,-7.564000129699707 C-18.822999954223633,-7.093999862670898 -17.344999313354492,-6.611000061035156 -16.114999771118164,-5.710999965667725 C-13.164999961853027,-3.555000066757202 -12.074000358581543,0.6489999890327454 -8.852999687194824,2.374000072479248 C-6.857999801635742,3.440999984741211 -4.1620001792907715,3.490999937057495 -2.880000114440918,5.354000091552734 C-1.3200000524520874,7.620999813079834 -3.0889999866485596,10.704999923706055 -5.138000011444092,12.541999816894531 C-7.185999870300293,14.378000259399414 -9.756999969482422,16.145000457763672 -10.121000289916992,18.871999740600586 C-10.331999778747559,20.459999084472656 -9.711000442504883,22.040000915527344 -8.949999809265137,23.450000762939453 C-6.920000076293945,27.208999633789062 -3.7760000228881836,30.35700035095215 -0.019999999552965164,32.393001556396484 C2.6440000534057617,33.83700180053711 5.932000160217285,35.0880012512207 6.802999973297119,37.9900016784668 C7.5,40.310001373291016 6.303999900817871,42.7869987487793 6.500999927520752,45.20199966430664 C6.718999862670898,47.8650016784668 8.595000267028809,50.150001525878906 8.949999809265137,52.79899978637695 C9.300000190734863,55.40800094604492 8.140000343322754,58.14099884033203 8.947999954223633,60.645999908447266 C9.413000106811523,62.08700180053711 10.473999977111816,63.250999450683594 11.142999649047852,64.60700225830078 C12.017000198364258,66.38099670410156 12.187999725341797,68.40299987792969 12.513999938964844,70.35299682617188 C13.178999900817871,74.31999969482422 14.597999572753906,78.25399780273438 17.229999542236328,81.2959976196289 C19.687000274658203,84.13600158691406 23.312999725341797,86.0770034790039 27.04599952697754,86.06099700927734 C27.88599967956543,85.65899658203125 28.61199951171875,85.02300262451172 29.121000289916992,84.24299621582031 C29.167999267578125,83.2020034790039 27.634000778198242,83.1449966430664 26.628999710083008,82.87000274658203 C24.868000030517578,82.38700103759766 24.121999740600586,80.28199768066406 24.051000595092773,78.45800018310547 C23.979999542236328,76.63500213623047 24.28700065612793,74.70899963378906 23.516000747680664,73.05400085449219 C22.881000518798828,71.69300079345703 21.55699920654297,70.62799835205078 21.371000289916992,69.13600158691406 C21.121000289916992,67.13400268554688 23.00200080871582,65.56800079345703 24.711999893188477,64.49500274658203 C27.472999572753906,62.762001037597656 30.361000061035156,61.17599868774414 32.763999938964844,58.97200012207031 C35.16600036621094,56.76900100708008 37.082000732421875,53.8120002746582 37.23400115966797,50.555999755859375 C37.32500076293945,48.624000549316406 36.847999572753906,46.47600173950195 37.97700119018555,44.90599822998047 C40.18899917602539,41.82699966430664 46.03499984741211,44.130001068115234 48.2760009765625,41.071998596191406 C49.645999908447266,39.202999114990234 48.70800018310547,36.617000579833984 48.53499984741211,34.30500030517578 C48.402000427246094,32.52199935913086 48.779998779296875,30.70400047302246 49.612998962402344,29.121000289916992 C50.446998596191406,27.538000106811523 51.71900177001953,26.19099998474121 52.36199951171875,24.520999908447266 C53.00400161743164,22.85099983215332 52.744998931884766,20.589000701904297 51.14699935913086,19.781999588012695z"></path></g><g opacity="1" transform="matrix(1,0,0,1,154.49099731445312,43.79600143432617)"><path fill="rgb(16,179,135)" fill-opacity="1" d=" M-24.41900062561035,19.191999435424805 C-23.097000122070312,19.062999725341797 -22.344999313354492,17.680999755859375 -21.62700080871582,16.56399917602539 C-20.184999465942383,14.317000389099121 -18.06999969482422,12.600000381469727 -15.993000030517578,10.92300033569336 C-14.909000396728516,10.04800033569336 -13.72599983215332,9.131999969482422 -12.333999633789062,9.055000305175781 C-10.812000274658203,8.970999717712402 -9.378000259399414,9.920000076293945 -7.855000019073486,9.855999946594238 C-6.492000102996826,9.798999786376953 -5.14300012588501,8.937999725341797 -3.8450000286102295,9.355999946594238 C-3.375,9.506999969482422 -2.9739999771118164,9.815999984741211 -2.5820000171661377,10.116999626159668 C-1.5470000505447388,10.916000366210938 -0.5109999775886536,11.713000297546387 0.5239999890327454,12.51200008392334 C2.055000066757202,13.692000389099121 3.7660000324249268,15.387999534606934 3.1989998817443848,17.235000610351562 C2.9159998893737793,18.160999298095703 2.0869998931884766,19.1560001373291 2.6410000324249268,19.951000213623047 C3.2219998836517334,20.784000396728516 4.622000217437744,20.177000045776367 5.061999797821045,19.26099967956543 C5.501999855041504,18.34600067138672 5.473999977111816,17.243999481201172 5.999000072479248,16.374000549316406 C6.741000175476074,17.152000427246094 7.48199987411499,17.930999755859375 8.225000381469727,18.709999084472656 C7.665999889373779,15.423999786376953 6.198999881744385,12.295999526977539 4.03000020980835,9.765999794006348 C4.934999942779541,9.048999786376953 6.341000080108643,9.472000122070312 7.136000156402588,10.309000015258789 C7.932000160217285,11.145999908447266 8.310999870300293,12.279000282287598 8.824999809265137,13.312999725341797 C9.694999694824219,15.0649995803833 11.003999710083008,16.597000122070312 12.598999977111816,17.729000091552734 C12.927000045776367,17.961999893188477 13.29699993133545,18.18600082397461 13.699000358581543,18.163000106811523 C14.685999870300293,18.107999801635742 14.954000473022461,16.799999237060547 15.017999649047852,15.814000129699707 C15.081000328063965,14.82699966430664 15.64900016784668,13.529999732971191 16.604999542236328,13.782999992370605 C17.229000091552734,15.86299991607666 18.47800064086914,17.812000274658203 20.320999145507812,18.959999084472656 C22.165000915527344,20.10700035095215 24.63599967956543,20.33799934387207 26.516000747680664,19.25200080871582 C29.86400032043457,17.31800079345703 29.993999481201172,12.557000160217285 29.259000778198242,8.76099967956543 C28.086000442504883,2.7079999446868896 25.67799949645996,-3.2720000743865967 21.35099983215332,-7.663000106811523 C17.023000717163086,-12.055000305175781 8.892999649047852,-20.783000946044922 2.88100004196167,-19.41699981689453 C2.88100004196167,-19.41699981689453 0.7080000042915344,-19.42300033569336 0.7080000042915344,-19.42300033569336 C0.07400000095367432,-16.516000747680664 -2.180999994277954,-14.019000053405762 -5.007999897003174,-13.093999862670898 C-5.961999893188477,-12.781999588012695 -7.006999969482422,-12.619999885559082 -7.7870001792907715,-11.98799991607666 C-8.567000389099121,-11.355999946594238 -8.88700008392334,-10.005999565124512 -8.097999572753906,-9.38599967956543 C-7.288000106811523,-8.75 -5.822999954223633,-9.22700023651123 -5.2829999923706055,-8.35099983215332 C-4.953000068664551,-7.816999912261963 -5.215000152587891,-7.090000152587891 -4.9629998207092285,-6.514999866485596 C-4.204999923706055,-4.785999774932861 -1.1069999933242798,-6.993000030517578 0.24899999797344208,-5.678999900817871 C1.1460000276565552,-4.809000015258789 0.3009999990463257,-3.191999912261963 -0.859000027179718,-2.7300000190734863 C-2.0199999809265137,-2.2690000534057617 -3.3350000381469727,-2.4590001106262207 -4.553999900817871,-2.187000036239624 C-6.265999794006348,-1.805999994277954 -7.632999897003174,-0.5609999895095825 -8.913999557495117,0.6349999904632568 C-11.355999946594238,2.9159998893737793 -13.79699993133545,5.197000026702881 -16.238000869750977,7.4770002365112305 C-17.079999923706055,8.263999938964844 -17.951000213623047,9.067999839782715 -19.027000427246094,9.47700023651123 C-20.69300079345703,10.109000205993652 -22.54400062561035,9.692999839782715 -24.320999145507812,9.586999893188477 C-26.100000381469727,9.482000350952148 -28.17799949645996,9.878000259399414 -29.016000747680664,11.449999809265137 C-29.993999481201172,13.288000106811523 -28.708999633789062,15.472999572753906 -27.468000411987305,17.145000457763672 C-26.702999114990234,18.176000595092773 -25.695999145507812,19.316999435424805 -24.41900062561035,19.191999435424805z"></path></g><g opacity="1" transform="matrix(1,0,0,1,154.44700622558594,113.30699920654297)"><path fill="rgb(16,179,135)" fill-opacity="1" d=" M38.77399826049805,-35.06700134277344 C37.02899932861328,-38.694000244140625 32.29199981689453,-41.13800048828125 28.81999969482422,-39.10100173950195 C28.81999969482422,-39.10100173950195 26.461000442504883,-39.23899841308594 26.461000442504883,-39.23899841308594 C22.84600067138672,-42.4109992980957 16.795000076293945,-38.694000244140625 12.487000465393066,-40.83399963378906 C11.27299976348877,-41.4370002746582 10.312999725341797,-42.4640007019043 9.107000350952148,-43.08399963378906 C7.9019999504089355,-43.702999114990234 6.196000099182129,-43.768001556396484 5.4029998779296875,-42.66899871826172 C5.177999973297119,-42.358001708984375 5.052999973297119,-41.986000061035156 4.870999813079834,-41.64899826049805 C3.5199999809265137,-39.16299819946289 -0.07500000298023224,-39.42100143432617 -2.8369998931884766,-40.02799987792969 C-4.755000114440918,-40.448001861572266 -7.068999767303467,-41.275001525878906 -7.320000171661377,-43.22200012207031 C-7.410999774932861,-43.926998138427734 -7.188000202178955,-44.65700149536133 -7.3470001220703125,-45.349998474121094 C-7.73199987411499,-47.016998291015625 -10.04699993133545,-47.42900085449219 -11.614999771118164,-46.74399948120117 C-13.182999610900879,-46.05799865722656 -14.371000289916992,-44.702999114990234 -15.902999877929688,-43.94200134277344 C-18.42099952697754,-42.69300079345703 -21.408000946044922,-43.22700119018555 -24.21500015258789,-43.07699966430664 C-27.023000717163086,-42.92599868774414 -30.295000076293945,-41.4630012512207 -30.549999237060547,-38.66299819946289 C-30.6200008392334,-37.89899826049805 -30.448999404907227,-37.099998474121094 -30.71299934387207,-36.380001068115234 C-31.006999969482422,-35.58300018310547 -31.76300048828125,-35.06999969482422 -32.45199966430664,-34.57400131225586 C-35.87699890136719,-32.10900115966797 -38.676998138427734,-28.77899932861328 -40.51900100708008,-24.981000900268555 C-39.7400016784668,-23.957000732421875 -37.52399826049805,-25.128000259399414 -37.03900146484375,-23.937000274658203 C-36.75400161743164,-23.239999771118164 -37.479000091552734,-22.589000701904297 -38.00600051879883,-22.054000854492188 C-40.422000885009766,-19.601999282836914 -39.540000915527344,-15.48900032043457 -38.04899978637695,-12.385000228881836 C-36.729000091552734,-9.63700008392334 -35,-6.995999813079834 -32.527000427246094,-5.2129998207092285 C-30.05299949645996,-3.430000066757202 -26.72800064086914,-2.625999927520752 -23.87700080871582,-3.7079999446868896 C-22.155000686645508,-4.361000061035156 -20.7450008392334,-5.622000217437744 -19.176000595092773,-6.589000225067139 C-17.607999801635742,-7.557000160217285 -15.65999984741211,-8.241999626159668 -13.939000129699707,-7.584000110626221 C-12.73900032043457,-7.125 -11.829999923706055,-6.078000068664551 -10.619000434875488,-5.64900016784668 C-8.248000144958496,-4.809999942779541 -4.763999938964844,-6.203000068664551 -3.619999885559082,-3.9639999866485596 C-2.822999954223633,-2.4070000648498535 -4.166999816894531,-0.5870000123977661 -4.079999923706055,1.1619999408721924 C-3.996999979019165,2.812000036239624 -2.677000045776367,4.091000080108643 -1.5010000467300415,5.251999855041504 C0.42100000381469727,7.150000095367432 2.2170000076293945,9.246000289916992 3.2869999408721924,11.72599983215332 C4.355000019073486,14.204999923706055 4.625,17.132999420166016 3.506999969482422,19.591999053955078 C2.546999931335449,21.704999923706055 0.6010000109672546,24 1.781999945640564,25.999000549316406 C2.2130000591278076,26.73200035095215 2.989000082015991,27.18899917602539 3.5360000133514404,27.839000701904297 C5.326000213623047,29.965999603271484 4.234000205993652,33.37300109863281 5.577000141143799,35.80699920654297 C6.318999767303467,37.152000427246094 7.729000091552734,38.04499816894531 8.406000137329102,39.42399978637695 C9.036999702453613,40.70899963378906 8.935999870300293,42.2130012512207 9.107999801635742,43.63600158691406 C9.279000282287598,45.05799865722656 9.913000106811523,46.630001068115234 11.274999618530273,47.07500076293945 C12.361000061035156,47.42900085449219 13.538999557495117,46.9379997253418 14.506999969482422,46.33000183105469 C17.790000915527344,44.275001525878906 19.496000289916992,40.604000091552734 21.479000091552734,37.277000427246094 C23.900999069213867,33.2140007019043 22.665000915527344,30.30299949645996 25.415000915527344,27.073999404907227 C36.45600128173828,14.107999801635742 36.15599822998047,-6.340000152587891 39.31999969482422,-23.21299934387207 C40.0620002746582,-27.16900062561035 40.51900100708008,-31.440000534057617 38.77399826049805,-35.06700134277344z"></path></g><g opacity="1" transform="matrix(1,0,0,1,140.30599975585938,39.834999084472656)"><path fill="rgb(16,179,135)" fill-opacity="1" d=" M-2.2290000915527344,4.775000095367432 C-2.203000068664551,5.074999809265137 -2.1730000972747803,5.385000228881836 -2.0320000648498535,5.650000095367432 C-1.6269999742507935,6.40500020980835 -0.47200000286102295,6.429999828338623 0.21299999952316284,5.916999816894531 C0.8989999890327454,5.4029998779296875 1.2280000448226929,4.553999900817871 1.524999976158142,3.750999927520752 C1.524999976158142,3.750999927520752 1.281000018119812,4.784999847412109 1.281000018119812,4.784999847412109 C3.119999885559082,1.9390000104904175 1.4420000314712524,-1.7860000133514404 -0.23600000143051147,-4.729000091552734 C-0.5460000038146973,-5.27400016784668 -0.8849999904632568,-5.8470001220703125 -1.440000057220459,-6.138000011444092 C-1.9950000047683716,-6.428999900817871 -2.825000047683716,-6.284999847412109 -3.0390000343322754,-5.695000171661377 C-3.119999885559082,-5.4710001945495605 -3.0999999046325684,-5.223999977111816 -3.0799999237060547,-4.986000061035156 C-2.7950000762939453,-1.7319999933242798 -2.51200008392334,1.5219999551773071 -2.2290000915527344,4.775000095367432z"></path></g><g opacity="1" transform="matrix(1,0,0,1,134.46099853515625,43.297000885009766)"><path fill="rgb(16,179,135)" fill-opacity="1" d=" M-1.496999979019165,1.1720000505447388 C-0.3490000069141388,2.443000078201294 2.2100000381469727,1.5210000276565552 2.2909998893737793,-0.1899999976158142 C2.3480000495910645,-1.3819999694824219 1.1820000410079956,-2.2899999618530273 0.032999999821186066,-2.361999988555908 C0.032999999821186066,-2.361999988555908 0.257999986410141,-2.430999994277954 0.257999986410141,-2.430999994277954 C0.09700000286102295,-2.443000078201294 -0.05299999937415123,-2.4130001068115234 -0.20200000703334808,-2.381999969482422 C-0.2290000021457672,-2.38100004196167 -0.25699999928474426,-2.375999927520752 -0.2840000092983246,-2.374000072479248 C-0.3160000145435333,-2.365999937057495 -0.3499999940395355,-2.36299991607666 -0.38100001215934753,-2.3529999256134033 C-0.734000027179718,-2.306999921798706 -1.0740000009536743,-2.187000036239624 -1.3550000190734863,-1.940000057220459 C-1.3550000190734863,-1.940000057220459 -0.9340000152587891,-2.069000005722046 -0.9340000152587891,-2.069000005722046 C-1.909999966621399,-1.3569999933242798 -2.3480000495910645,0.23100000619888306 -1.496999979019165,1.1720000505447388z"></path></g></g></g></svg>